<svg width="32" height="32" viewBox="0 0 32 32" fill="none" xmlns="http://www.w3.org/2000/svg">
<rect width="32" height="32" fill="white"/>
<path d="M19.528 12.768C19.528 13.6213 19.272 14.3307 18.76 14.896C18.248 15.4613 17.432 15.84 16.312 16.032L19.848 20.288C20.136 20.64 20.4507 20.896 20.792 21.056C21.144 21.2053 21.56 21.3173 22.04 21.392V22H18.952L15.032 16.976C14.8933 16.7947 14.76 16.6507 14.632 16.544C14.5147 16.4373 14.3867 16.3573 14.248 16.304C14.12 16.24 13.9653 16.2027 13.784 16.192C13.6133 16.1707 13.4053 16.16 13.16 16.16V19.488C13.16 19.8827 13.1813 20.208 13.224 20.464C13.2773 20.7093 13.3787 20.9013 13.528 21.04C13.688 21.1787 13.912 21.2747 14.2 21.328C14.4987 21.3707 14.888 21.392 15.368 21.392V22H9.72V21.392C10.0933 21.3813 10.392 21.3493 10.616 21.296C10.8507 21.2427 11.032 21.152 11.16 21.024C11.288 20.896 11.3733 20.7147 11.416 20.48C11.4587 20.2453 11.48 19.9413 11.48 19.568V12.112C11.48 11.7387 11.4587 11.44 11.416 11.216C11.384 10.9813 11.3093 10.8 11.192 10.672C11.0853 10.5333 10.9253 10.4427 10.712 10.4C10.4987 10.3467 10.2213 10.3093 9.88 10.288V9.68H14.904C16.376 9.68 17.512 9.952 18.312 10.496C19.1227 11.04 19.528 11.7973 19.528 12.768ZM13.16 15.36H14.296C15.3627 15.36 16.152 15.168 16.664 14.784C17.1867 14.3893 17.448 13.744 17.448 12.848C17.448 11.984 17.24 11.3653 16.824 10.992C16.4187 10.6187 15.7787 10.432 14.904 10.432H13.432C13.2507 10.432 13.16 10.5227 13.16 10.704V15.36ZM22.6814 21.12C22.6814 20.8213 22.7827 20.5707 22.9854 20.368C23.188 20.1653 23.4334 20.064 23.7214 20.064C24.02 20.064 24.2707 20.1653 24.4734 20.368C24.676 20.5707 24.7774 20.8213 24.7774 21.12C24.7774 21.408 24.676 21.6533 24.4734 21.856C24.2707 22.0587 24.02 22.16 23.7214 22.16C23.4334 22.16 23.188 22.0587 22.9854 21.856C22.7827 21.6533 22.6814 21.408 22.6814 21.12Z" fill="#1A1A1A"/>
</svg>
