<svg width="62" height="28" viewBox="0 0 62 28" fill="none" xmlns="http://www.w3.org/2000/svg">
<path d="M20.056 8.536C20.056 10.2427 19.544 11.6613 18.52 12.792C17.496 13.9227 15.864 14.68 13.624 15.064L20.696 23.576C21.272 24.28 21.9013 24.792 22.584 25.112C23.288 25.4107 24.12 25.6347 25.08 25.784V27H18.904L11.064 16.952C10.7867 16.5893 10.52 16.3013 10.264 16.088C10.0293 15.8747 9.77333 15.7147 9.496 15.608C9.24 15.48 8.93067 15.4053 8.568 15.384C8.22667 15.3413 7.81067 15.32 7.32 15.32V21.976C7.32 22.7653 7.36267 23.416 7.448 23.928C7.55467 24.4187 7.75733 24.8027 8.056 25.08C8.376 25.3573 8.824 25.5493 9.4 25.656C9.99733 25.7413 10.776 25.784 11.736 25.784V27H0.44V25.784C1.18667 25.7627 1.784 25.6987 2.232 25.592C2.70133 25.4853 3.064 25.304 3.32 25.048C3.576 24.792 3.74667 24.4293 3.832 23.96C3.91733 23.4907 3.96 22.8827 3.96 22.136V7.224C3.96 6.47733 3.91733 5.88 3.832 5.432C3.768 4.96267 3.61867 4.6 3.384 4.344C3.17067 4.06667 2.85067 3.88533 2.424 3.8C1.99733 3.69333 1.44267 3.61867 0.76 3.576V2.36H10.808C13.752 2.36 16.024 2.904 17.624 3.992C19.2453 5.08 20.056 6.59467 20.056 8.536ZM7.32 13.72H9.592C11.7253 13.72 13.304 13.336 14.328 12.568C15.3733 11.7787 15.896 10.488 15.896 8.696C15.896 6.968 15.48 5.73067 14.648 4.984C13.8373 4.23733 12.5573 3.864 10.808 3.864H7.864C7.50133 3.864 7.32 4.04533 7.32 4.408V13.72ZM40.704 24.024C38.8907 26.2213 36.64 27.32 33.952 27.32C32.6933 27.32 31.552 27.1173 30.528 26.712C29.504 26.2853 28.6187 25.6987 27.872 24.952C27.1467 24.184 26.5813 23.2773 26.176 22.232C25.7707 21.1653 25.568 19.992 25.568 18.712C25.568 17.4107 25.7813 16.2053 26.208 15.096C26.6347 13.9867 27.232 13.0373 28 12.248C28.7893 11.4587 29.7173 10.84 30.784 10.392C31.872 9.944 33.056 9.72 34.336 9.72C36.4053 9.72 38.0053 10.2853 39.136 11.416C40.2667 12.5253 40.832 14.1253 40.832 16.216C40.832 16.5147 40.768 16.696 40.64 16.76C40.5333 16.824 40.2667 16.856 39.84 16.856H29.312C29.2693 17.0267 29.2373 17.24 29.216 17.496C29.1947 17.7307 29.184 17.9973 29.184 18.296C29.184 19.4053 29.312 20.4187 29.568 21.336C29.8453 22.232 30.2293 23 30.72 23.64C31.232 24.28 31.8293 24.7813 32.512 25.144C33.216 25.4853 33.9947 25.656 34.848 25.656C35.744 25.656 36.576 25.464 37.344 25.08C38.112 24.6747 38.9013 24.024 39.712 23.128L40.704 24.024ZM35.424 15.384C35.8507 15.384 36.192 15.3733 36.448 15.352C36.704 15.3307 36.896 15.288 37.024 15.224C37.152 15.16 37.2373 15.0747 37.28 14.968C37.3227 14.84 37.344 14.68 37.344 14.488C37.344 13.5067 37.024 12.728 36.384 12.152C35.7653 11.5547 34.912 11.256 33.824 11.256C31.52 11.256 30.0907 12.632 29.536 15.384H35.424ZM43.0478 10.552H46.6638V8.248C46.6638 5.79467 47.3038 3.88533 48.5838 2.52C49.8851 1.13333 51.7304 0.439999 54.1198 0.439999C55.4424 0.439999 56.5198 0.642665 57.3518 1.048C58.1838 1.45333 58.5998 1.976 58.5998 2.616C58.5998 3.04267 58.4611 3.40533 58.1838 3.704C57.9278 3.98133 57.5971 4.12 57.1918 4.12C56.9358 4.12 56.6584 4.04533 56.3598 3.896C56.0824 3.72533 55.7091 3.448 55.2398 3.064C54.7064 2.616 54.2904 2.328 53.9918 2.2C53.6931 2.05066 53.3411 1.976 52.9358 1.976C51.6558 1.976 50.7384 2.62667 50.1838 3.928C49.9918 4.35467 49.8531 4.87733 49.7678 5.496C49.7038 6.11467 49.6718 6.968 49.6718 8.056V10.552H54.8238V12.056H49.6718V21.848C49.6718 22.6373 49.7144 23.288 49.7998 23.8C49.9064 24.312 50.0771 24.728 50.3118 25.048C50.5678 25.3467 50.9091 25.56 51.3358 25.688C51.7624 25.7947 52.3171 25.8587 52.9998 25.88V27H43.9118V25.88C44.5091 25.8587 44.9891 25.8053 45.3518 25.72C45.7144 25.6133 45.9918 25.432 46.1838 25.176C46.3758 24.8987 46.5038 24.5253 46.5677 24.056C46.6318 23.5653 46.6638 22.9147 46.6638 22.104V12.056H43.0478V10.552ZM57.6753 25.24C57.6753 24.6427 57.8779 24.1413 58.2833 23.736C58.6886 23.3307 59.1793 23.128 59.7552 23.128C60.3526 23.128 60.8539 23.3307 61.2593 23.736C61.6646 24.1413 61.8673 24.6427 61.8673 25.24C61.8673 25.816 61.6646 26.3067 61.2593 26.712C60.8539 27.1173 60.3526 27.32 59.7552 27.32C59.1793 27.32 58.6886 27.1173 58.2833 26.712C57.8779 26.3067 57.6753 25.816 57.6753 25.24Z" fill="#1A1A1A"/>
</svg>
