<svg width="346" height="211" viewBox="0 0 346 211" fill="none" xmlns="http://www.w3.org/2000/svg">
<g clip-path="url(#clip0_10_7)">
<path d="M111.86 66.91C111.86 75.8633 109.14 83.4 103.7 89.52C98.26 95.5267 89.59 99.55 77.69 101.59L115.26 146.81C118.32 150.55 121.72 153.27 125.46 154.97C129.2 156.557 133.563 157.747 138.55 158.54V165H105.74L64.09 111.62C62.1633 109.013 60.35 107.087 58.65 105.84C56.95 104.593 54.9667 103.8 52.7 103.46C50.5467 103.12 47.7133 102.95 44.2 102.95V138.31C44.2 143.863 44.71 148.113 45.73 151.06C46.8633 154.007 49.0733 155.99 52.36 157.01C55.76 158.03 60.86 158.54 67.66 158.54V165H7.65V158.54C12.9767 158.313 16.9433 157.747 19.55 156.84C22.27 155.82 24.0833 153.95 24.99 151.23C25.8967 148.51 26.35 144.487 26.35 139.16V59.94C26.35 54.6133 25.9533 50.6467 25.16 48.04C24.3667 45.32 22.7233 43.45 20.23 42.43C17.85 41.41 14.2233 40.7867 9.35 40.56V34.1H62.73C78.2567 34.1 90.3267 36.99 98.94 42.77C107.553 48.55 111.86 56.5967 111.86 66.91ZM44.2 44.98V94.45H56.27C67.49 94.45 75.8767 92.3533 81.43 88.16C86.9833 83.9667 89.76 77.1667 89.76 67.76C89.76 58.6933 87.55 52.1767 83.13 48.21C78.8233 44.13 72.0233 42.09 62.73 42.09H47.09C45.1633 42.09 44.2 43.0533 44.2 44.98ZM216.283 144.43L221.553 149.19C211.919 160.863 199.963 166.7 185.683 166.7C176.843 166.7 169.079 164.773 162.393 160.92C155.706 157.067 150.493 151.74 146.753 144.94C143.013 138.027 141.143 130.037 141.143 120.97C141.143 111.677 143.126 103.46 147.093 96.32C151.059 89.0667 156.499 83.4 163.413 79.32C170.439 75.24 178.543 73.2 187.723 73.2C198.603 73.2 207.046 76.2033 213.053 82.21C219.173 88.1033 222.233 96.6033 222.233 107.71C222.233 109.183 221.893 110.147 221.213 110.6C220.646 110.94 219.229 111.11 216.963 111.11H161.033C160.806 112.017 160.636 113.15 160.523 114.51C160.409 115.757 160.353 117.173 160.353 118.76C160.353 126.58 161.599 133.437 164.093 139.33C166.586 145.223 170.099 149.813 174.633 153.1C179.166 156.273 184.436 157.86 190.443 157.86C195.089 157.86 199.509 156.783 203.703 154.63C207.896 152.477 212.089 149.077 216.283 144.43ZM162.223 103.29H193.503C198.149 103.29 200.983 103.007 202.003 102.44C203.136 101.873 203.703 100.57 203.703 98.53C203.703 93.3167 202.003 89.18 198.603 86.12C195.203 82.9467 190.669 81.36 185.003 81.36C178.996 81.36 174.066 83.23 170.213 86.97C166.359 90.5967 163.696 96.0367 162.223 103.29ZM238.594 165V159.05C242.9 158.823 246.074 158.257 248.114 157.35C250.267 156.33 251.627 154.46 252.194 151.74C252.874 148.907 253.214 144.657 253.214 138.99V85.61H234.004V77.62H253.214V65.38C253.214 56.6533 254.744 49.23 257.804 43.11C260.864 36.8767 265.34 32.1167 271.234 28.83C277.24 25.5433 284.437 23.9 292.824 23.9C299.85 23.9 305.574 24.9767 309.994 27.13C314.414 29.2833 316.624 32.1733 316.624 35.8C316.624 37.84 315.887 39.6533 314.414 41.24C313.054 42.7133 311.297 43.45 309.144 43.45C307.67 43.45 306.197 42.9967 304.724 42.09C303.25 41.1833 301.267 39.7667 298.774 37.84C296.28 35.9133 294.297 34.4967 292.824 33.59C291.35 32.57 289.367 32.06 286.874 32.06C283.587 32.06 280.584 32.91 277.864 34.61C275.257 36.31 273.217 38.9733 271.744 42.6C270.837 44.8667 270.157 47.7 269.704 51.1C269.364 54.5 269.194 58.92 269.194 64.36V77.62H296.564V85.61H269.194V137.63C269.194 143.183 269.647 147.49 270.554 150.55C271.574 153.61 273.33 155.763 275.824 157.01C278.43 158.257 282.114 158.937 286.874 159.05V165H238.594ZM311.712 155.65C311.712 152.477 312.789 149.813 314.942 147.66C317.096 145.507 319.702 144.43 322.762 144.43C325.936 144.43 328.599 145.507 330.752 147.66C332.906 149.813 333.982 152.477 333.982 155.65C333.982 158.71 332.906 161.317 330.752 163.47C328.599 165.623 325.936 166.7 322.762 166.7C319.702 166.7 317.096 165.623 314.942 163.47C312.789 161.317 311.712 158.71 311.712 155.65Z" fill="white"/>
</g>
<defs>
<clipPath id="clip0_10_7">
<rect width="346" height="211" fill="white"/>
</clipPath>
</defs>
</svg>
