<svg width="440" height="264" viewBox="0 0 440 264" fill="none" xmlns="http://www.w3.org/2000/svg">
<path d="M158.86 93.91C158.86 102.977 156.14 110.513 150.7 116.52C145.26 122.527 136.59 126.55 124.69 128.59L162.26 173.81C165.32 177.55 168.663 180.27 172.29 181.97C176.03 183.557 180.45 184.747 185.55 185.54V192H152.74L111.09 138.62C109.617 136.693 108.2 135.163 106.84 134.03C105.593 132.897 104.233 132.047 102.76 131.48C101.4 130.8 99.7567 130.403 97.83 130.29C96.0167 130.063 93.8067 129.95 91.2 129.95V165.31C91.2 169.503 91.4267 172.96 91.88 175.68C92.4467 178.287 93.5233 180.327 95.11 181.8C96.81 183.273 99.19 184.293 102.25 184.86C105.423 185.313 109.56 185.54 114.66 185.54V192H54.65V185.54C58.6167 185.427 61.79 185.087 64.17 184.52C66.6633 183.953 68.59 182.99 69.95 181.63C71.31 180.27 72.2167 178.343 72.67 175.85C73.1233 173.357 73.35 170.127 73.35 166.16V86.94C73.35 82.9733 73.1233 79.8 72.67 77.42C72.33 74.9267 71.5367 73 70.29 71.64C69.1567 70.1667 67.4567 69.2033 65.19 68.75C62.9233 68.1833 59.9767 67.7867 56.35 67.56V61.1H109.73C125.37 61.1 137.44 63.99 145.94 69.77C154.553 75.55 158.86 83.5967 158.86 93.91ZM91.2 121.45H103.27C114.603 121.45 122.99 119.41 128.43 115.33C133.983 111.137 136.76 104.28 136.76 94.76C136.76 85.58 134.55 79.0067 130.13 75.04C125.823 71.0733 119.023 69.09 109.73 69.09H94.09C92.1633 69.09 91.2 70.0533 91.2 71.98V121.45ZM268.553 176.19C258.919 187.863 246.963 193.7 232.683 193.7C225.996 193.7 219.933 192.623 214.493 190.47C209.053 188.203 204.349 185.087 200.383 181.12C196.529 177.04 193.526 172.223 191.373 166.67C189.219 161.003 188.143 154.77 188.143 147.97C188.143 141.057 189.276 134.653 191.543 128.76C193.809 122.867 196.983 117.823 201.062 113.63C205.256 109.437 210.186 106.15 215.853 103.77C221.633 101.39 227.923 100.2 234.723 100.2C245.716 100.2 254.216 103.203 260.223 109.21C266.229 115.103 269.233 123.603 269.233 134.71C269.233 136.297 268.893 137.26 268.213 137.6C267.646 137.94 266.229 138.11 263.963 138.11H208.033C207.806 139.017 207.636 140.15 207.523 141.51C207.409 142.757 207.353 144.173 207.353 145.76C207.353 151.653 208.033 157.037 209.393 161.91C210.866 166.67 212.906 170.75 215.513 174.15C218.233 177.55 221.406 180.213 225.033 182.14C228.773 183.953 232.909 184.86 237.443 184.86C242.203 184.86 246.623 183.84 250.703 181.8C254.783 179.647 258.976 176.19 263.283 171.43L268.553 176.19ZM240.503 130.29C242.769 130.29 244.583 130.233 245.943 130.12C247.303 130.007 248.323 129.78 249.003 129.44C249.683 129.1 250.136 128.647 250.363 128.08C250.589 127.4 250.703 126.55 250.703 125.53C250.703 120.317 249.003 116.18 245.603 113.12C242.316 109.947 237.783 108.36 232.003 108.36C219.763 108.36 212.169 115.67 209.223 130.29H240.503ZM281.004 104.62H300.214V92.38C300.214 79.3467 303.614 69.2033 310.414 61.95C317.327 54.5833 327.13 50.9 339.824 50.9C346.85 50.9 352.574 51.9767 356.994 54.13C361.414 56.2833 363.624 59.06 363.624 62.46C363.624 64.7267 362.887 66.6533 361.414 68.24C360.054 69.7133 358.297 70.45 356.144 70.45C354.784 70.45 353.31 70.0533 351.724 69.26C350.25 68.3533 348.267 66.88 345.774 64.84C342.94 62.46 340.73 60.93 339.144 60.25C337.557 59.4567 335.687 59.06 333.534 59.06C326.734 59.06 321.86 62.5167 318.914 69.43C317.894 71.6967 317.157 74.4733 316.704 77.76C316.364 81.0467 316.194 85.58 316.194 91.36V104.62H343.564V112.61H316.194V164.63C316.194 168.823 316.42 172.28 316.874 175C317.44 177.72 318.347 179.93 319.594 181.63C320.954 183.217 322.767 184.35 325.034 185.03C327.3 185.597 330.247 185.937 333.874 186.05V192H285.594V186.05C288.767 185.937 291.317 185.653 293.244 185.2C295.17 184.633 296.644 183.67 297.664 182.31C298.684 180.837 299.364 178.853 299.704 176.36C300.044 173.753 300.214 170.297 300.214 165.99V112.61H281.004V104.62ZM358.712 182.65C358.712 179.477 359.789 176.813 361.942 174.66C364.096 172.507 366.702 171.43 369.762 171.43C372.936 171.43 375.599 172.507 377.752 174.66C379.906 176.813 380.982 179.477 380.982 182.65C380.982 185.71 379.906 188.317 377.752 190.47C375.599 192.623 372.936 193.7 369.762 193.7C366.702 193.7 364.096 192.623 361.942 190.47C359.789 188.317 358.712 185.71 358.712 182.65Z" fill="#1A1A1A"/>
</svg>
